<svg xmlns="http://www.w3.org/2000/svg" viewBox="0 0 96 96" width="96" height="96" role="img" aria-label="Sticker kucing senang">
  <g fill="none" stroke="#2b2925" stroke-width="2.5" stroke-linecap="round" stroke-linejoin="round">
    <path d="M25 42 L28 13.5 L50 30" fill="#fdf8ef"/>
    <path d="M71 42 L68 13.5 L46 30" fill="#fdf8ef"/>
    <path d="M30.5 36 L33 19.5 L45 29 Z" fill="#e9c3c4" stroke="none"/>
    <path d="M65.5 36 L63 19.5 L51 29 Z" fill="#e9c3c4" stroke="none"/>
    <ellipse cx="48" cy="55" rx="30" ry="26" fill="#fdf8ef"/>
    <path d="M20 55 L9 52.5" stroke-opacity=".4" stroke-width="2"/>
    <path d="M19 61 L7 61" stroke-opacity=".4" stroke-width="2"/>
    <path d="M20 67 L9.5 69.5" stroke-opacity=".4" stroke-width="2"/>
    <path d="M76 55 L87 52.5" stroke-opacity=".4" stroke-width="2"/>
    <path d="M77 61 L89 61" stroke-opacity=".4" stroke-width="2"/>
    <path d="M76 67 L86.5 69.5" stroke-opacity=".4" stroke-width="2"/>
    <ellipse cx="31" cy="63" rx="5.5" ry="3.2" fill="#e6a3a8" fill-opacity=".55" stroke="none"/>
    <ellipse cx="65" cy="63" rx="5.5" ry="3.2" fill="#e6a3a8" fill-opacity=".55" stroke="none"/>
    <circle cx="38" cy="52" r="4.3" fill="#2b2925" stroke="none"/>
    <circle cx="58" cy="52" r="4.3" fill="#2b2925" stroke="none"/>
    <circle cx="39.6" cy="50.4" r="1.4" fill="#fdf8ef" stroke="none"/>
    <circle cx="59.6" cy="50.4" r="1.4" fill="#fdf8ef" stroke="none"/>
    <path d="M48 63.5 Q44.5 67.5 40.5 64.3" stroke-width="2.2"/>
    <path d="M48 63.5 Q51.5 67.5 55.5 64.3" stroke-width="2.2"/>
    <path d="M44.6 59 Q48 57.5 51.4 59 Q50.5 62.3 48 63.3 Q45.5 62.3 44.6 59 Z" fill="#cd7f86" stroke="none"/>
  </g>
</svg>
